<svg viewBox="0 0 480 320" xmlns="http://www.w3.org/2000/svg">
  <defs>
    <linearGradient id="sky" x1="50%" y1="0%" x2="50%" y2="100%">
      <stop offset="0%" stop-color="#0f172a" />
      <stop offset="100%" stop-color="#1e293b" />
    </linearGradient>
    <linearGradient id="scan" x1="0%" y1="0%" x2="100%" y2="100%">
      <stop offset="0%" stop-color="#38bdf8" stop-opacity="0.25" />
      <stop offset="100%" stop-color="#22d3ee" stop-opacity="0" />
    </linearGradient>
  </defs>
  <rect width="480" height="320" fill="url(#sky)" />
  <g stroke="#1e3a8a" stroke-width="0.8" opacity="0.35">
    <path d="M0 40h480M0 80h480M0 120h480M0 160h480M0 200h480M0 240h480M0 280h480" />
    <path d="M40 0v320M80 0v320M120 0v320M160 0v320M200 0v320M240 0v320M280 0v320M320 0v320M360 0v320M400 0v320M440 0v320" />
  </g>
  <rect x="40" y="60" width="400" height="200" rx="24" fill="url(#scan)" opacity="0.45" />
  <circle cx="300" cy="130" r="34" fill="none" stroke="#38bdf8" stroke-width="3" opacity="0.7" />
  <circle cx="220" cy="180" r="26" fill="none" stroke="#38bdf8" stroke-width="2" stroke-dasharray="6 4" opacity="0.6" />
  <rect x="72" y="220" width="96" height="48" rx="12" fill="#0ea5e9" opacity="0.4" />
  <rect x="308" y="68" width="120" height="48" rx="12" fill="#38bdf8" opacity="0.3" />
</svg>
